<svg xmlns="http://www.w3.org/2000/svg" viewBox="0 0 512 512" role="img" aria-label="SnapMail">
  <defs>
    <linearGradient id="g" x1="0%" y1="0%" x2="100%" y2="100%">
      <stop offset="0%" stop-color="#10b981"/>
      <stop offset="100%" stop-color="#0a8f62"/>
    </linearGradient>
  </defs>
  <rect width="512" height="512" rx="96" fill="url(#g)"/>
  <path fill="#ffffff" d="M128 176c0-17.7 14.3-32 32-32h192c17.7 0 32 14.3 32 32v160c0 17.7-14.3 32-32 32H160c-17.7 0-32-14.3-32-32V176Zm36.7 4 91.3 71 91.3-71H164.7ZM144 204.5v131.5c0 8.8 7.2 16 16 16h192c8.8 0 16-7.2 16-16V204.5l-99.3 77.2a16 16 0 0 1-19.4 0L144 204.5Z"/>
</svg>
